PathFileType	4	(X/Y/Z)	OpenSim_Sub05_CSStiffKnee_Gyro.trc
DataRate	CameraRate	NumFrames	NumMarkers	Units	OrigDataRate	OrigDataStartFrame	OrigNumFrames
100	100	23	8	m	100	1407	11248
Frame#	Time	torso_imu_offset_imu	pelvis_imu_offset_imu	tibia_r_imu_offset_imu	femur_r_imu_offset_imu	tibia_l_imu_offset_imu	femur_l_imu_offset_imu	toes_r_imu_offset_imu	toes_l_imu_offset_imu
				X1	Y1	Z1	X2	Y2	Z2	X3	Y3	Z3	X4	Y4	Z4	X5	Y5	Z5	X6	Y6	Z6	X7	Y7	Z7	X8		Y8	Z8	

1407	14.06000000	0.62867488	0.19605746	0.30030786	-0.00393437	-0.14321962	0.10907715	-0.02090423	-0.14665964	-0.51467789	-0.20793200	-0.11394595	-0.94566526	0.07934291	0.19935728	-1.93749745	0.34748842	0.11904060	-0.98497964	-0.15412100	-0.69750375	-0.04391090	0.07530859	1.79822443	-0.49295493
1408	14.07000000	0.64513045	0.17041909	0.30234981	-0.03543227	-0.11273007	0.11286905	-0.11341087	-0.13721275	-0.53788057	-0.18728993	-0.03544882	-0.86576531	0.01555077	0.18797497	-1.97468037	0.42122400	0.13042753	-1.03535280	-0.14736979	-0.72895636	-0.07110535	0.08630900	1.84063632	-0.53606657
1409	14.08000000	0.63121944	0.14667645	0.29697667	-0.06250905	-0.08720135	0.10277653	-0.18079530	-0.13919459	-0.54797832	-0.26334017	0.03860060	-0.75366249	-0.03031235	0.18786096	-2.00339158	0.45171832	0.10722029	-1.07766065	-0.17468861	-0.76036546	-0.08899156	0.08411915	1.89365027	-0.59466815
1410	14.09000000	0.60289828	0.12144201	0.29147714	-0.09800054	-0.08804164	0.08632933	-0.17680779	-0.12967087	-0.59181077	-0.36650491	0.03586780	-0.64642772	-0.04059485	0.19457395	-2.03835583	0.46110622	0.08759083	-1.08987897	-0.20733153	-0.78844857	-0.09334129	0.08322990	1.92051834	-0.66762482
1411	14.10000000	0.57315095	0.10791940	0.27842803	-0.13538054	-0.13926545	0.08079439	-0.12832965	-0.10534231	-0.63638610	-0.40159608	0.02439908	-0.57428588	-0.04084411	0.20747310	-2.09206386	0.44184641	0.10144852	-1.10238696	-0.20219889	-0.82123188	-0.11114292	0.06612650	1.93714450	-0.75723095
1412	14.11000000	0.55562432	0.09942040	0.26398661	-0.15027569	-0.18617156	0.07984473	-0.13021812	-0.11526289	-0.65021058	-0.46167067	0.03905714	-0.55961038	-0.10269607	0.23344914	-2.14197312	0.36877552	0.12377295	-1.11921119	-0.18888079	-0.84321729	-0.13994268	0.05043510	1.94448402	-0.84777725
1413	14.12000000	0.54800817	0.09140799	0.25700554	-0.15909333	-0.22681042	0.07837132	-0.15284386	-0.12461350	-0.68027570	-0.55100976	-0.01531776	-0.57228572	-0.17822210	0.24825923	-2.19610717	0.28052403	0.11015966	-1.10346340	-0.17591709	-0.83919432	-0.17329751	0.04611049	1.94351204	-0.91425881
1414	14.13000000	0.55404927	0.07736563	0.24228825	-0.16759663	-0.29090624	0.08449485	-0.21716856	-0.13258763	-0.71006862	-0.58375978	-0.05877435	-0.52391410	-0.19828614	0.25415895	-2.24513995	0.17839074	0.11022839	-1.09044069	-0.16212786	-0.80974828	-0.22094680	0.04123470	1.94210058	-0.93598612
1415	14.14000000	0.56643876	0.06647150	0.25098546	-0.18800977	-0.32711960	0.08931866	-0.30962728	-0.15086337	-0.71111219	-0.57962135	0.01428568	-0.49853461	-0.22503983	0.26383508	-2.28429914	-0.00394101	0.11056414	-1.08851457	-0.13015260	-0.78310192	-0.26200280	0.03318858	1.93495878	-0.92710996
1416	14.15000000	0.58113594	0.05962062	0.26609366	-0.20788328	-0.32874911	0.08210340	-0.34136232	-0.14572539	-0.71376726	-0.56488144	0.04280190	-0.53281632	-0.30325691	0.26842736	-2.32823885	-0.23497784	0.10092490	-1.06958453	-0.10505363	-0.75981767	-0.28519637	0.03810285	1.91966955	-0.89279481
1417	14.16000000	0.59486809	0.05788829	0.25523414	-0.21623434	-0.30716734	0.08976649	-0.33699058	-0.14660207	-0.73058390	-0.51006928	-0.00612616	-0.51685799	-0.36873329	0.26568099	-2.36504496	-0.44109487	0.11115774	-1.04018043	-0.10935937	-0.75305453	-0.30355747	0.05695213	1.91278677	-0.84974806
1418	14.17000000	0.59743343	0.06673711	0.23940479	-0.23074897	-0.27778328	0.10583788	-0.37561987	-0.14408182	-0.75670562	-0.40084870	-0.00609788	-0.48993061	-0.35969669	0.25767067	-2.37632270	-0.61124693	0.09704451	-1.00505412	-0.10791827	-0.76124559	-0.32292599	0.06466826	1.91379311	-0.81010822
1419	14.18000000	0.58053867	0.06565865	0.22637409	-0.26040740	-0.26608491	0.12249950	-0.36971705	-0.15911852	-0.75758785	-0.35503518	0.03096332	-0.48019172	-0.30700170	0.27042246	-2.35287599	-0.70145702	0.09149945	-0.96282834	-0.09283418	-0.78169162	-0.33817620	0.08656220	1.88766429	-0.76883082
1420	14.19000000	0.53711500	0.06035266	0.20978122	-0.29932679	-0.28833194	0.14289799	-0.40698468	-0.18302409	-0.76022411	-0.35012260	0.05213199	-0.46478591	-0.27759802	0.25018360	-2.31692672	-0.71382598	0.11444042	-0.93103400	-0.07582915	-0.82280058	-0.35732932	0.16540720	1.81644024	-0.72792151
1421	14.20000000	0.49062709	0.05960894	0.20326866	-0.34304856	-0.32076496	0.16539892	-0.47032286	-0.17895001	-0.80008521	-0.27495794	0.02303149	-0.42108065	-0.25108699	0.20093739	-2.26682827	-0.71571229	0.12900824	-0.89787977	-0.08059960	-0.86462283	-0.36614175	0.25996400	1.73190588	-0.68685228
1422	14.21000000	0.45869028	0.04606057	0.20748989	-0.38861547	-0.36493709	0.18121571	-0.49803288	-0.16318287	-0.85138282	-0.16856115	0.01117393	-0.37217738	-0.18714390	0.18732510	-2.17166808	-0.68305610	0.12891238	-0.86279190	-0.07684145	-0.89727297	-0.36408167	0.32465367	1.70378624	-0.66330924
1423	14.22000000	0.42794329	0.03625141	0.20852652	-0.43640194	-0.38030182	0.17285148	-0.49116061	-0.15307701	-0.90149128	-0.07663370	0.03833693	-0.33336085	-0.09703689	0.14775248	-2.02811552	-0.56921293	0.09025088	-0.82226873	-0.07232259	-0.93394255	-0.36728783	0.37285580	1.65619080	-0.63814138
1424	14.23000000	0.40329294	0.04310855	0.18807529	-0.48035139	-0.37469614	0.16053124	-0.44088931	-0.14968123	-0.94727330	-0.06336729	0.11289449	-0.29251097	-0.03964527	0.08680175	-1.88347047	-0.39366868	0.05168350	-0.76622178	-0.07110281	-0.97142559	-0.38237978	0.39581773	1.54768407	-0.61496788
1425	14.24000000	0.39367259	0.04854988	0.15083733	-0.50577836	-0.40715823	0.13171367	-0.38398804	-0.16705632	-0.99806413	-0.19283700	0.20392599	-0.25652876	0.02085796	0.05512753	-1.70430509	-0.21978847	0.05885239	-0.71230363	-0.05084869	-0.99540921	-0.40990519	0.37299151	1.43769217	-0.58857398
1426	14.25000000	0.35572682	0.04983856	0.11665777	-0.51537918	-0.42626480	0.08928745	-0.35354655	-0.18286425	-1.05551157	-0.33771645	0.25674316	-0.22842848	0.09382091	0.01782914	-1.47556391	-0.11483708	0.07877605	-0.66716743	-0.00849969	-1.02680930	-0.43658058	0.30855247	1.27173313	-0.52523683
1427	14.26000000	0.28254986	0.06323689	0.08415497	-0.50048431	-0.44525644	0.06347142	-0.32921014	-0.16539642	-1.08841436	-0.42532058	0.28970275	-0.22189470	0.08607151	-0.02984047	-1.23302713	-0.08799734	0.06927514	-0.63343577	0.00824321	-1.06409283	-0.44494661	0.25325909	1.04287831	-0.43676106
1428	14.27000000	0.19398073	0.06190425	0.05635211	-0.47724133	-0.46423307	0.05746376	-0.30565475	-0.15600255	-1.09863774	-0.52664535	0.29968384	-0.22032149	0.05125003	-0.06141488	-0.95145433	-0.06259843	0.05453640	-0.60384950	-0.00032990	-1.11855376	-0.44470936	0.25405840	0.81813190	-0.35260204
1429	14.28000000	0.13087470	0.06501236	0.03806997	-0.46109613	-0.45657928	0.07855117	-0.30267709	-0.13466411	-1.13414805	-0.55376141	0.29773701	-0.20767523	0.00038260	-0.10537351	-0.64700257	-0.02046442	0.05541515	-0.58054061	-0.00013087	-1.19894113	-0.42893695	0.28744030	0.61256836	-0.26986942
